<svg width="512" height="512" viewBox="0 0 120 120" fill="none" xmlns="http://www.w3.org/2000/svg">
  <defs>
    <linearGradient id="tile" x1="0" y1="0" x2="0" y2="1">
      <stop offset="0" stop-color="#74BD83"/>
      <stop offset="1" stop-color="#4F9C64"/>
    </linearGradient>
  </defs>
  <rect x="0" y="0" width="120" height="120" rx="28" fill="url(#tile)"/>

  <rect x="33" y="19" width="54" height="82" rx="11" fill="#F4EEDF"/>
  <rect x="33" y="46" width="54" height="2.2" fill="#E5DDCA"/>
  <rect x="76.5" y="27" width="4.6" height="13.5" rx="2.3" fill="#2E7D46"/>
  <rect x="76.5" y="54.5" width="4.6" height="37" rx="2.3" fill="#2E7D46"/>

  <g transform="rotate(-4 53 75)">
    <rect x="35" y="56" width="36" height="42" rx="7" fill="#1F4A2E" opacity="0.16"/>
    <rect x="35" y="54" width="36" height="42" rx="7" fill="#FFFFFF"/>
    <circle cx="52" cy="55" r="4" fill="#E8654A"/>
    <rect x="41" y="64" width="6.4" height="6.4" rx="2" fill="#2E7D46"/>
    <rect x="50.5" y="66" width="16.5" height="3" rx="1.5" fill="#D5CFC1"/>
    <rect x="41" y="73.5" width="6.4" height="6.4" rx="2" fill="#2E7D46"/>
    <rect x="50.5" y="75.5" width="12.5" height="3" rx="1.5" fill="#D5CFC1"/>
    <rect x="41.7" y="83.4" width="5" height="5" rx="1.6" fill="none" stroke="#C3BDAE" stroke-width="1.6"/>
    <rect x="50.5" y="85" width="14.5" height="3" rx="1.5" fill="#D5CFC1"/>
  </g>
</svg>
